<?xml version="1.0" standalone="no"?>
<!DOCTYPE svg PUBLIC "-//W3C//DTD SVG 20010904//EN"
 "http://www.w3.org/TR/2001/REC-SVG-20010904/DTD/svg10.dtd">
<svg version="1.0" xmlns="http://www.w3.org/2000/svg"
 width="192.000000pt" height="192.000000pt" viewBox="0 0 192.000000 192.000000" transform="scale(1.35)"
 preserveAspectRatio="xMidYMid meet">
<metadata>
Created by potrace 1.10, written by Peter Selinger 2001-2011
</metadata>
<g transform="translate(0.000000,192.000000) scale(0.100000,-0.100000)"
fill="#000000" stroke="none">
<path d="M860 1702 c-40 -22 -50 -42 -21 -42 12 0 21 -5 21 -10 0 -6 -13 -9
-28 -8 -37 3 -48 -6 -73 -54 l-21 -40 41 4 c31 3 37 1 29 -9 -5 -7 -25 -15
-44 -19 -34 -6 -38 -12 -50 -78 l-7 -40 34 20 c19 11 36 29 37 40 2 10 16 32
30 47 23 24 25 31 14 47 -17 28 -15 35 15 49 24 11 29 10 38 -4 5 -10 18 -27
28 -39 17 -19 17 -19 9 -1 -6 11 -12 34 -13 50 -2 17 -8 33 -13 36 -4 4 -3 10
3 14 14 8 97 -72 86 -83 -4 -4 -20 9 -36 28 -31 37 -36 32 -18 -19 11 -32 35
-41 57 -19 18 18 15 42 -9 72 -27 34 -20 41 22 23 53 -22 63 -39 48 -81 -10
-28 -10 -45 1 -91 13 -54 13 -56 -8 -71 -31 -22 -27 -56 11 -90 22 -20 40 -52
56 -101 22 -62 23 -75 12 -100 l-13 -28 -21 27 c-19 23 -105 78 -122 78 -17 0
27 -56 56 -69 22 -11 36 -26 42 -48 7 -24 16 -32 41 -36 40 -6 44 -2 58 64 10
50 9 60 -16 122 -15 37 -31 103 -36 145 -5 42 -17 99 -26 126 l-17 49 27 24
c30 25 27 41 -16 79 -60 55 -144 70 -208 36z m198 -308 c25 -17 29 -34 8 -34
-7 0 -21 11 -30 25 -19 29 -11 32 22 9z"/>
<path d="M786 1442 c-4 -13 -23 -30 -41 -39 -36 -17 -45 -36 -44 -98 l0 -40
34 39 c23 26 35 34 35 23 0 -9 -13 -32 -30 -50 -25 -29 -30 -43 -30 -86 0 -28
4 -51 8 -51 12 0 53 76 45 83 -3 4 2 24 12 46 16 38 16 40 -1 70 -17 29 -17
30 5 48 17 14 22 27 19 48 -3 29 -4 29 -12 7z"/>
<path d="M849 1384 c-31 -51 -38 -171 -14 -243 18 -55 40 -72 24 -19 -18 63
-10 178 15 241 28 67 12 80 -25 21z"/>
<path d="M906 1398 c-2 -7 -11 -38 -21 -68 -27 -81 -21 -248 9 -237 19 7 107
-195 115 -264 5 -39 14 -66 29 -82 20 -21 20 -26 8 -72 l-12 -50 -89 0 -89 0
-18 50 c-14 38 -17 65 -13 111 7 66 -2 134 -16 134 -5 0 -9 -19 -9 -43 0 -24
-7 -66 -15 -94 -14 -49 -14 -53 5 -86 14 -24 19 -43 14 -61 -12 -49 6 -56 142
-56 87 0 125 4 131 13 4 6 8 33 8 59 0 30 6 53 18 65 40 45 15 150 -71 290
-33 54 -67 119 -77 146 -10 26 -22 47 -27 47 -20 0 15 -87 98 -244 27 -50 38
-85 41 -131 3 -36 1 -65 -4 -68 -6 -4 -13 21 -16 61 -5 54 -18 90 -66 187 -32
66 -66 144 -76 173 -17 52 -17 55 4 116 12 34 21 72 21 84 0 24 -18 40 -24 20z"/>
<path d="M770 1186 c0 -7 -9 -25 -20 -39 -17 -22 -20 -38 -18 -94 l3 -68 19
40 c10 21 19 53 21 70 2 16 7 47 11 68 4 25 3 37 -5 37 -6 0 -11 -6 -11 -14z"/>
<path d="M768 1017 c-26 -61 -26 -65 -14 -142 13 -85 19 -88 30 -15 7 54 18
220 14 220 -2 0 -15 -29 -30 -63z"/>
<path d="M920 551 l-85 -6 -7 -47 c-3 -27 -16 -63 -27 -82 -12 -18 -21 -42
-21 -52 0 -18 10 -19 165 -19 188 0 184 -2 140 81 -14 26 -25 61 -25 78 0 35
-16 57 -39 54 -9 -1 -54 -4 -101 -7z m120 -31 c0 -5 -18 -10 -40 -10 -22 0
-40 5 -40 10 0 6 18 10 40 10 22 0 40 -4 40 -10z m-99 -19 c14 -10 36 -21 49
-23 27 -3 65 -60 56 -83 -4 -12 -26 -15 -100 -15 -54 0 -98 4 -101 10 -4 6 1
32 10 58 10 26 19 53 21 60 5 18 38 15 65 -7z"/>
<path d="M736 289 c-14 -17 -26 -34 -26 -39 0 -5 -3 -15 -6 -24 -6 -14 20 -16
241 -16 221 0 247 2 241 16 -3 9 -6 19 -6 24 0 5 -12 22 -26 39 l-26 31 -183
0 -183 0 -26 -31z m389 1 c4 -6 -12 -10 -39 -10 -25 0 -49 0 -53 -1 -4 0 -9 4
-11 10 -5 14 94 15 103 1z m-141 -16 c41 -16 6 -24 -99 -24 -105 0 -127 5
-108 23 8 9 186 9 207 1z"/>
</g>
</svg>
